<svg width="144" height="23" viewBox="0 0 144 23" fill="none" xmlns="http://www.w3.org/2000/svg">
<g clip-path="url(#clip0_1208_1670)">
<path d="M0 2.26957C0 1.01612 1.0212 0 2.28092 0H20.2803C21.5401 0 22.5613 1.01612 22.5613 2.26957V20.1794C22.5613 21.4329 21.5401 22.449 20.2803 22.449H2.28092C1.0212 22.449 0 21.4329 0 20.1794V2.26957Z" fill="#2D2D2D"/>
<path d="M11.7271 17.6815C10.377 17.6815 9.18157 17.4033 8.14062 16.8466C7.11591 16.29 6.31079 15.5347 5.72526 14.5805C5.15598 13.6105 4.87134 12.5053 4.87134 11.2649C4.87134 10.2789 5.03399 9.38042 5.35928 8.56939C5.68458 7.75838 6.13187 7.05865 6.70115 6.47026C7.2867 5.86596 7.97795 5.4048 8.77494 5.08676C9.5882 4.75279 10.4746 4.58582 11.4343 4.58582C12.28 4.58582 13.0689 4.74484 13.8008 5.0629C14.5328 5.38095 15.1671 5.81827 15.7039 6.37486C16.2406 6.91554 16.6472 7.56755 16.9237 8.33087C17.2165 9.07828 17.3547 9.89724 17.3385 10.7878L17.3141 11.8135H6.89634L6.33519 9.80979H14.8011L14.4108 10.2153V9.69051C14.362 9.19754 14.1993 8.76817 13.9228 8.40241C13.6463 8.02075 13.2885 7.72657 12.8493 7.51984C12.4264 7.2972 11.9548 7.18589 11.4343 7.18589C10.6373 7.18589 9.96227 7.33696 9.40928 7.6391C8.87252 7.94126 8.46591 8.37856 8.18941 8.95105C7.91291 9.50766 7.77464 10.2073 7.77464 11.0502C7.77464 11.8612 7.94543 12.5689 8.28699 13.1732C8.64481 13.7775 9.14091 14.2466 9.77523 14.5805C10.4258 14.8986 11.1822 15.0576 12.0442 15.0576C12.646 15.0576 13.199 14.9622 13.7032 14.7714C14.2075 14.5805 15.2403 13.9452 15.8258 13.4523L17.3141 15.4798C16.8749 15.8774 15.8828 16.5127 15.3135 16.7989C14.7605 17.0693 14.175 17.284 13.5569 17.443C12.9388 17.602 12.3288 17.6815 11.7271 17.6815Z" fill="white"/>
<path d="M14.3596 14.2843L15.7359 16.9778L14.229 17.6126L13.334 14.7992L14.3596 14.2843Z" fill="#2D2D2D"/>
<mask id="mask0_1208_1670" style="mask-type:luminance" maskUnits="userSpaceOnUse" x="31" y="5" width="60" height="18">
<path d="M90.1177 5.47013H31.5188V22.8601H90.1177V5.47013Z" fill="white"/>
</mask>
<g mask="url(#mask0_1208_1670)">
<path d="M79.7582 22.8389L82.3605 16.9895L82.3838 18.8415L76.3428 5.74255H79.6421L83.0112 13.5116C83.1194 13.7073 83.2281 13.9708 83.3364 14.302C83.4449 14.6182 83.5377 14.9344 83.6153 15.2506L83.0345 15.4312C83.1427 15.1452 83.2589 14.844 83.3829 14.5279C83.507 14.1966 83.6232 13.8579 83.7314 13.5116L86.6126 5.74255H89.9352L84.8234 17.6445L82.7323 22.8389H79.7582Z" fill="#2D2D2D"/>
<path d="M71.578 17.8706C70.3542 17.8706 69.2622 17.6071 68.3018 17.0802C67.3415 16.5382 66.5824 15.8004 66.0246 14.8669C65.4671 13.9334 65.1882 12.8719 65.1882 11.6825C65.1882 10.4931 65.4671 9.43162 66.0246 8.49813C66.5824 7.56464 67.3415 6.83442 68.3018 6.30744C69.2622 5.76542 70.3542 5.4944 71.578 5.4944C72.7862 5.4944 73.8705 5.76542 74.831 6.30744C75.7912 6.83442 76.5426 7.56464 77.0846 8.49813C77.6421 9.43162 77.921 10.4931 77.921 11.6825C77.921 12.8719 77.6421 13.9334 77.0846 14.8669C76.5426 15.8004 75.7912 16.5382 74.831 17.0802C73.8705 17.6071 72.7862 17.8706 71.578 17.8706ZM71.578 15.4089C72.244 15.4089 72.8327 15.2433 73.3439 14.9121C73.8705 14.5809 74.2809 14.1367 74.5754 13.5796C74.8852 13.0225 75.0323 12.3902 75.0167 11.6825C75.0323 10.9598 74.8852 10.3199 74.5754 9.76285C74.2809 9.20576 73.8705 8.76913 73.3439 8.45295C72.8327 8.12172 72.244 7.95611 71.578 7.95611C70.912 7.95611 70.3077 8.12172 69.7655 8.45295C69.239 8.76913 68.8286 9.21331 68.5341 9.78544C68.2398 10.3425 68.0927 10.9749 68.0927 11.6825C68.0927 12.3902 68.2398 13.0225 68.5341 13.5796C68.8286 14.1367 69.239 14.5809 69.7655 14.9121C70.3077 15.2433 70.912 15.4089 71.578 15.4089Z" fill="#2D2D2D"/>
<path d="M59.0365 17.6445L53.8782 5.74255H56.9917L60.477 14.6408L59.8729 14.7989L63.5439 5.74255H66.5879L61.1739 17.6445H59.0365Z" fill="#2D2D2D"/>
<path d="M43.8562 17.6448V5.74283H46.6445L46.6911 8.18195L46.1566 8.45295C46.3114 7.91093 46.6136 7.42162 47.0628 6.98498C47.5119 6.53328 48.0464 6.17194 48.666 5.90092C49.2855 5.6299 49.9208 5.4944 50.5712 5.4944C51.5007 5.4944 52.2752 5.67508 52.8948 6.03642C53.5299 6.39778 54.0022 6.9398 54.312 7.6625C54.6375 8.3852 54.8 9.28858 54.8 10.3726V17.6448H51.942V10.5759C51.942 9.97364 51.8568 9.47678 51.6864 9.08531C51.516 8.67881 51.2528 8.3852 50.8966 8.20452C50.5402 8.00879 50.1065 7.91845 49.5953 7.93352C49.1772 7.93352 48.7899 8.00127 48.4337 8.13677C48.0927 8.25722 47.7908 8.4379 47.5275 8.67881C47.2796 8.90465 47.0782 9.16812 46.9234 9.46926C46.784 9.77037 46.7141 10.1016 46.7141 10.463V17.6448H45.2969C45.018 17.6448 44.7548 17.6448 44.5068 17.6448C44.2745 17.6448 44.0576 17.6448 43.8562 17.6448Z" fill="#2D2D2D"/>
<path d="M38.048 17.8689C36.7623 17.8689 35.6238 17.6055 34.6323 17.0785C33.6565 16.5515 32.8897 15.8364 32.3322 14.933C31.79 14.0146 31.5188 12.9681 31.5188 11.7938C31.5188 10.8603 31.6738 10.0096 31.9834 9.24174C32.2933 8.47386 32.7193 7.81139 33.2614 7.2543C33.8192 6.68217 34.4775 6.24554 35.2364 5.94443C36.0109 5.62825 36.8552 5.47013 37.7691 5.47013C38.5746 5.47013 39.3258 5.6207 40.023 5.92184C40.7199 6.22297 41.324 6.63701 41.8352 7.16396C42.3464 7.67589 42.7335 8.29318 42.997 9.01588C43.2759 9.72353 43.4074 10.4989 43.3921 11.3421L43.3688 12.3132H33.4474L32.913 10.4161H40.9755L40.6038 10.8V10.3032C40.5572 9.83646 40.4024 9.42994 40.1391 9.08365C39.8756 8.72229 39.535 8.44375 39.1167 8.24802C38.714 8.03723 38.2647 7.93184 37.7691 7.93184C37.01 7.93184 36.3673 8.07489 35.8405 8.36095C35.3293 8.64702 34.9422 9.06106 34.6789 9.60308C34.4154 10.1301 34.2838 10.7925 34.2838 11.5905C34.2838 12.3584 34.4466 13.0284 34.7718 13.6005C35.1126 14.1727 35.5849 14.6168 36.1892 14.933C36.8086 15.2341 37.5289 15.3847 38.3499 15.3847C38.923 15.3847 39.4498 15.2943 39.9298 15.1137C40.4101 14.933 40.929 14.6093 41.4867 14.1425L42.9042 16.0622C42.4858 16.4386 42.0056 16.7623 41.4634 17.0333C40.9369 17.2893 40.3791 17.4926 39.7906 17.6431C39.2019 17.7936 38.6211 17.8689 38.048 17.8689Z" fill="#2D2D2D"/>
</g>
<path d="M93.5773 17.7441V5.7478H94.9823V17.7441H93.5773ZM94.2916 3.68595C94.0038 3.68595 93.7578 3.58961 93.5538 3.39697C93.3496 3.19912 93.2476 2.96222 93.2476 2.68626C93.2476 2.41029 93.3496 2.176 93.5538 1.98335C93.7578 1.7855 94.0038 1.68657 94.2916 1.68657C94.5793 1.68657 94.8253 1.7855 95.0293 1.98335C95.2336 2.176 95.3356 2.41029 95.3356 2.68626C95.3356 2.96222 95.2336 3.19912 95.0293 3.39697C94.8253 3.58961 94.5793 3.68595 94.2916 3.68595Z" fill="#2D2D2D"/>
<path d="M98.306 10.2464V17.7441H96.9089V5.7478H98.2669V7.63004H98.3924C98.6751 7.01564 99.1145 6.5236 99.7112 6.15393C100.313 5.77906 101.056 5.59159 101.94 5.59159C102.751 5.59159 103.463 5.76081 104.075 6.09925C104.693 6.43248 105.171 6.92451 105.512 7.57535C105.857 8.2262 106.03 9.02543 106.03 9.97306V17.7441H104.632V10.059C104.632 9.07489 104.355 8.2965 103.801 7.72375C103.251 7.15102 102.513 6.86464 101.587 6.86464C100.954 6.86464 100.391 7.00002 99.8993 7.27076C99.4076 7.54152 99.0178 7.93201 98.7298 8.44227C98.4473 8.94732 98.306 9.5487 98.306 10.2464Z" fill="#2D2D2D"/>
<path d="M116.041 8.37979L114.761 8.73905C114.636 8.37979 114.458 8.05437 114.228 7.76279C113.998 7.47123 113.697 7.23952 113.325 7.0677C112.959 6.89588 112.504 6.80998 111.959 6.80998C111.143 6.80998 110.473 7.00262 109.95 7.38791C109.427 7.7732 109.165 8.27044 109.165 8.87964C109.165 9.3951 109.343 9.81425 109.699 10.1371C110.06 10.4547 110.614 10.7072 111.363 10.8946L113.184 11.3398C114.194 11.5845 114.95 11.9724 115.452 12.5035C115.96 13.0346 116.213 13.7011 116.213 14.5029C116.213 15.1798 116.025 15.7811 115.648 16.307C115.272 16.8329 114.746 17.2468 114.071 17.5488C113.401 17.8456 112.624 17.994 111.74 17.994C110.562 17.994 109.591 17.7311 108.827 17.2052C108.064 16.6741 107.574 15.9087 107.36 14.909L108.702 14.581C108.874 15.2943 109.212 15.8332 109.715 16.1977C110.222 16.5621 110.889 16.7444 111.716 16.7444C112.642 16.7444 113.383 16.5387 113.937 16.1274C114.492 15.7108 114.769 15.1902 114.769 14.5654C114.769 14.0811 114.607 13.675 114.283 13.347C113.958 13.0138 113.466 12.769 112.807 12.6128L110.837 12.1443C109.79 11.8943 109.016 11.4986 108.514 10.9571C108.011 10.4156 107.76 9.74395 107.76 8.94211C107.76 8.28086 107.94 7.70032 108.302 7.20047C108.663 6.69542 109.16 6.29972 109.793 6.01335C110.426 5.72697 111.148 5.58378 111.959 5.58378C113.063 5.58378 113.945 5.83372 114.605 6.33356C115.269 6.8282 115.748 7.51028 116.041 8.37979Z" fill="#2D2D2D"/>
<path d="M125.165 13.1596V5.7478H126.562V17.7441H125.165V15.7525H125.055C124.773 16.3669 124.325 16.8798 123.713 17.2911C123.101 17.6972 122.353 17.9003 121.468 17.9003C120.699 17.9003 120.016 17.7337 119.42 17.4004C118.823 17.062 118.355 16.5674 118.015 15.9165C117.675 15.2657 117.504 14.4664 117.504 13.5188V5.7478H118.902V13.4329C118.902 14.3701 119.179 15.1251 119.734 15.6978C120.288 16.2654 121 16.5491 121.869 16.5491C122.413 16.5491 122.936 16.419 123.438 16.1586C123.941 15.8983 124.354 15.5182 124.678 15.0184C125.003 14.5133 125.165 13.8937 125.165 13.1596Z" fill="#2D2D2D"/>
<path d="M128.493 17.7441V5.74779H129.851V7.59097H129.953C130.194 6.98701 130.612 6.50018 131.209 6.1305C131.811 5.7556 132.491 5.56816 133.25 5.56816C133.365 5.56816 133.493 5.57077 133.634 5.57597C133.776 5.58118 133.893 5.58639 133.987 5.59159V7.00523C133.925 6.99482 133.815 6.9792 133.658 6.95837C133.501 6.93753 133.331 6.92711 133.148 6.92711C132.52 6.92711 131.96 7.05989 131.468 7.32544C130.981 7.58576 130.597 7.94763 130.314 8.41103C130.032 8.87443 129.89 9.40291 129.89 9.99649V17.7441H128.493Z" fill="#2D2D2D"/>
<path d="M139.111 17.994C137.986 17.994 137.012 17.7337 136.191 17.213C135.369 16.6871 134.734 15.9608 134.284 15.034C133.839 14.102 133.616 13.0294 133.616 11.8162C133.616 10.6083 133.839 9.53569 134.284 8.59847C134.734 7.65607 135.354 6.9193 136.144 6.38822C136.939 5.85194 137.857 5.58378 138.899 5.58378C139.553 5.58378 140.184 5.70354 140.791 5.94304C141.398 6.17736 141.942 6.53922 142.423 7.02865C142.91 7.51288 143.294 8.12468 143.577 8.86402C143.859 9.59816 144.001 10.4677 144.001 11.4726V12.1599H134.582V10.9337H142.572C142.572 10.1631 142.415 9.47061 142.101 8.85621C141.793 8.23661 141.361 7.74717 140.806 7.38791C140.257 7.02865 139.621 6.84902 138.899 6.84902C138.135 6.84902 137.462 7.05208 136.882 7.45822C136.301 7.86433 135.846 8.40062 135.516 9.06708C135.191 9.73354 135.027 10.4625 135.021 11.2539V11.9881C135.021 12.9409 135.186 13.7739 135.516 14.4873C135.851 15.1954 136.324 15.7447 136.937 16.1352C137.549 16.5257 138.273 16.721 139.111 16.721C139.681 16.721 140.181 16.6324 140.61 16.4554C141.044 16.2784 141.408 16.0415 141.701 15.7447C141.999 15.4427 142.224 15.1121 142.376 14.7528L143.702 15.1824C143.519 15.6874 143.218 16.1534 142.8 16.5804C142.387 17.0073 141.868 17.351 141.246 17.6113C140.628 17.8664 139.917 17.994 139.111 17.994Z" fill="#2D2D2D"/>
<path d="M90.5078 17.8612C90.199 17.8612 89.9321 17.7519 89.7072 17.5332C89.4874 17.3093 89.3774 17.0438 89.3774 16.7366C89.3774 16.4242 89.4874 16.1586 89.7072 15.94C89.9321 15.7213 90.199 15.6119 90.5078 15.6119C90.8218 15.6119 91.0886 15.7213 91.3085 15.94C91.5281 16.1586 91.638 16.4242 91.638 16.7366C91.638 16.9397 91.5857 17.1271 91.481 17.2989C91.3817 17.4707 91.2456 17.6087 91.0728 17.7129C90.9055 17.8118 90.7171 17.8612 90.5078 17.8612Z" fill="#2D2D2D"/>
</g>
<defs>
<clipPath id="clip0_1208_1670">
<rect width="144" height="22.9254" fill="white"/>
</clipPath>
</defs>
</svg>
